# xmcd
#
# Track frame offsets:
#	150
#	16447
#	31693
#	48512
#	69614
#	85515
#	100360
#	116661
#	131897
#	149726
#	159913
#	172376
#	188082
#
# Disc length: 2695 seconds
# Revision: 3
# Processed by: cddbd v1.5.2PL0 Copyright (c) Steve Scherf et al.
# Submitted via: dBpowerAMP V12.0
#
DISCID=b70a850d
DTITLE=O'Shea - One and One
DYEAR=2013
DGENRE=Country
TTITLE0=This Could Be Our Year
TTITLE1=Be With You Tonight
TTITLE2=Thank You Angels
TTITLE3=Red Lights And Last Names
TTITLE4=Empty
TTITLE5=It Never Goes Away
TTITLE6=Dancing In The Minefields
TTITLE7=Looking Down On The Stars
TTITLE8=Missing Miracles
TTITLE9=The Swimming Song
TTITLE10=Wish You The Worst
TTITLE11=There's No Place Like Home
TTITLE12=One and One
EXTD=
EXTT0=
EXTT1=
EXTT2=
EXTT3=
EXTT4=
EXTT5=
EXTT6=
EXTT7=
EXTT8=
EXTT9=
EXTT10=
EXTT11=
EXTT12=
PLAYORDER=
